<svg id="Capa_1" enable-background="new 0 0 512 512" height="512" viewBox="0 0 512 512" width="512" xmlns="http://www.w3.org/2000/svg"><g><g><path d="m302.35 240.379-31.867-17.574c-9.016-4.972-19.951-4.973-28.968-.004l-30.275 16.686-4.049-32.054 23.463-12.9c6.382-3.518 10.346-10.228 10.346-17.516v-118.667c0-8.525 7.111-15.389 15.725-14.983 8.068.38 14.275 7.33 14.275 15.407v118.243c0 7.288 3.964 13.998 10.346 17.516l23.451 12.925z" fill="#ff8d95"/><path d="m81.5 441.35h-44c-16.569 0-30-13.431-30-30v-37.268c0-54.144 14.653-107.279 42.405-153.769l62.578-104.831c8.934-14.966 25.08-24.132 42.509-24.132h26.508c16.569 0 30 13.431 30 30v190c0 71.797-58.203 130-130 130z" fill="#ffc7ce"/><path d="m430.5 441.35h44c16.569 0 30-13.431 30-30v-37.268c0-54.144-14.653-107.279-42.405-153.769l-62.578-104.831c-8.934-14.966-25.08-24.132-42.509-24.132h-26.508c-16.569 0-30 13.431-30 30v190c0 71.797 58.203 130 130 130z" fill="#ffc7ce"/><path d="m504.5 374.08v37.27c0 16.57-13.43 30-30 30h-30c16.57 0 30-13.43 30-30v-37.27c0-54.14-14.65-107.28-42.41-153.77l-62.57-104.83c-8.61-14.41-23.91-23.45-40.61-24.09.52-.03 1.06-.04 1.59-.04h26.51c17.43 0 33.57 9.17 42.51 24.13l62.57 104.83c27.76 46.49 42.41 99.63 42.41 153.77z" fill="#ffb3c0"/><path d="m256 468.65c-50.534 0-91.5-40.966-91.5-91.5 0-50.534 40.966-91.5 91.5-91.5 50.534 0 91.5 40.966 91.5 91.5 0 50.534-40.966 91.5-91.5 91.5z" fill="#baf39a"/><path d="m347.5 377.15c0 25.27-10.24 48.14-26.8 64.7s-39.44 26.8-64.7 26.8c-5.11 0-10.12-.42-15-1.23 19.26-3.17 36.49-12.36 49.7-25.57 16.56-16.56 26.8-39.43 26.8-64.7s-10.24-48.14-26.8-64.7c-13.21-13.21-30.44-22.4-49.7-25.57 4.88-.81 9.89-1.23 15-1.23 25.26 0 48.14 10.24 64.7 26.8s26.8 39.43 26.8 64.7z" fill="#9ae59c"/><path d="m256 344.665c-23.902 0-32.5 14.551-32.5 32.5 0 17.949 8.667 32.5 32.5 32.5 23.833 0 32.5-14.551 32.5-32.5 0-17.95-8.667-32.5-32.5-32.5z" fill="#fcf1f2"/></g><g><path d="m468.534 216.469-62.577-104.831c-10.231-17.14-28.988-27.788-48.95-27.788h-26.507c-20.678 0-37.5 16.822-37.5 37.5v71.042l-8.033-4.428c-3.989-2.198-6.467-6.393-6.467-10.947v-17.037c0-4.142-3.357-7.5-7.5-7.5s-7.5 3.358-7.5 7.5v17.037c0 10.02 5.451 19.248 14.227 24.084l15.273 8.419v17.138l-18.896-10.42c-11.335-6.251-24.871-6.253-36.209-.005l-18.895 10.414v-17.127l15.274-8.418c8.775-4.836 14.226-14.065 14.226-24.084v-118.668c-.088-4.175 3.697-7.78 7.872-7.491 3.931.185 7.128 3.736 7.128 7.915v66.207c0 4.142 3.357 7.5 7.5 7.5s7.5-3.358 7.5-7.5v-66.207c0-12.274-9.409-22.332-21.423-22.898-6.221-.289-12.114 1.907-16.607 6.194-4.43 4.226-6.97 10.16-6.97 16.281v118.667c0 4.555-2.478 8.75-6.466 10.948l-8.034 4.427v-71.043c0-20.678-16.822-37.5-37.5-37.5h-26.507c-19.962 0-38.718 10.647-48.949 27.788l-62.579 104.831c-28.435 47.635-43.465 102.136-43.465 157.613v37.268c0 20.678 16.822 37.5 37.5 37.5 4.142 0 7.5-3.358 7.5-7.5s-3.358-7.5-7.5-7.5c-12.407 0-22.5-10.093-22.5-22.5v-37.268c0-52.771 14.297-104.613 41.345-149.925l62.578-104.831c7.539-12.63 21.36-20.476 36.069-20.476h26.508c12.407 0 22.5 10.093 22.5 22.5v171.592c-28.185 17.469-47 48.68-47 84.207 0 9.535 1.359 18.758 3.887 27.489-22.142 18.862-50.18 29.212-79.387 29.212h-9c-4.142 0-7.5 3.358-7.5 7.5s3.358 7.5 7.5 7.5h9c30.999 0 60.83-10.382 84.999-29.412 15.889 33.493 50.032 56.712 89.501 56.712 39.471 0 73.615-23.222 89.503-56.718 24.169 19.027 54.018 29.418 84.997 29.418h44c20.678 0 37.5-16.822 37.5-37.5v-37.268c0-55.477-15.03-109.978-43.466-157.613zm-249.534 27.305 26.135-14.404c6.802-3.75 14.923-3.749 21.725.003l26.14 14.415v41.541c-11.437-4.625-23.925-7.179-37-7.179s-25.563 2.554-37 7.179zm37 217.376c-46.318 0-84-37.683-84-84s37.682-84 84-84c46.317 0 84 37.682 84 84s-37.683 84-84 84zm241-49.8c0 12.407-10.094 22.5-22.5 22.5h-44c-29.188 0-57.249-10.35-79.388-29.207 2.528-8.733 3.888-17.957 3.888-27.494 0-35.527-18.815-66.738-47-84.207v-171.592c0-12.407 10.094-22.5 22.5-22.5h26.507c14.71 0 28.531 7.846 36.07 20.476l62.578 104.831c27.048 45.312 41.345 97.154 41.345 149.925z"/><path d="m307.508 369.657h-12.002c-.819-6.103-2.66-11.455-5.442-15.958l14.731-14.731c2.929-2.929 2.929-7.678 0-10.606-2.93-2.929-7.678-2.929-10.607 0l-14.733 14.733c-4.503-2.78-9.854-4.619-15.956-5.437v-12.008c0-4.142-3.357-7.5-7.5-7.5-4.142 0-7.5 3.358-7.5 7.5v12.008c-6.102.818-11.453 2.658-15.956 5.437l-14.734-14.733c-2.929-2.929-7.678-2.929-10.606 0-2.929 2.929-2.929 7.678 0 10.606l14.732 14.731c-2.782 4.503-4.623 9.855-5.442 15.958h-12.002c-4.142 0-7.5 3.358-7.5 7.5s3.358 7.5 7.5 7.5h11.999c.818 6.105 2.658 11.459 5.438 15.964l-14.726 14.726c-2.929 2.929-2.929 7.678 0 10.606 2.929 2.929 7.678 2.929 10.606 0l14.724-14.724c4.505 2.783 9.859 4.624 15.966 5.443v11.993c0 4.142 3.358 7.5 7.5 7.5 4.143 0 7.5-3.358 7.5-7.5v-11.993c6.106-.819 11.461-2.66 15.965-5.443l14.723 14.724c2.929 2.929 7.677 2.929 10.607 0 2.929-2.929 2.929-7.677 0-10.606l-14.726-14.726c2.781-4.505 4.621-9.858 5.438-15.963h11.999c4.143 0 7.5-3.358 7.5-7.5s-3.354-7.501-7.496-7.501zm-51.323 32.502c-.062-.001-.122-.009-.185-.009s-.123.008-.185.009c-16.693-.061-24.815-8.235-24.815-24.994 0-16.822 8.178-25 25-25 16.788 0 24.963 8.147 24.997 24.9 0 .031-.005.061-.005.092 0 .033.005.065.005.098-.03 16.696-8.15 24.843-24.812 24.904z"/><circle cx="256" cy="377.15" r="10"/><path d="m81.646 383.36c3.335 2.388 8.042 1.643 10.46-1.752 2.405-3.373 1.62-8.056-1.752-10.46l-16.354-11.662v-28.027l24-11.378v19.269c0 4.142 3.358 7.5 7.5 7.5s7.5-3.358 7.5-7.5v-26.38l25-11.852v26.231c0 4.142 3.358 7.5 7.5 7.5s7.5-3.358 7.5-7.5v-115.186l19.625-8.995c3.765-1.726 5.419-6.177 3.693-9.943s-6.175-5.42-9.943-3.693l-13.375 6.13v-21.312c0-4.142-3.358-7.5-7.5-7.5s-7.5 3.358-7.5 7.5v21.312l-13.375-6.13c-3.765-1.727-8.217-.073-9.943 3.693s-.072 8.217 3.693 9.943l19.625 8.995v72.356l-25 11.852v-58.02c0-4.142-3.358-7.5-7.5-7.5s-7.5 3.358-7.5 7.5v18.5h-15.656c-4.142 0-7.5 3.358-7.5 7.5s3.358 7.5 7.5 7.5h15.656v31.632l-24 11.378v-18.511c0-4.142-3.358-7.5-7.5-7.5s-7.5 3.358-7.5 7.5v63.137l-16.354 11.661c-3.373 2.404-4.157 7.088-1.752 10.46 2.419 3.396 7.125 4.141 10.46 1.752l15.146-10.799z"/><path d="m453 296.35c0-4.142-3.357-7.5-7.5-7.5s-7.5 3.358-7.5 7.5v18.509l-24-11.378v-31.631h15.656c4.143 0 7.5-3.358 7.5-7.5s-3.357-7.5-7.5-7.5h-15.656v-18.5c0-4.142-3.357-7.5-7.5-7.5s-7.5 3.358-7.5 7.5v58.02l-25-11.852v-72.355l19.625-8.995c3.766-1.726 5.419-6.177 3.693-9.943-1.726-3.765-6.174-5.421-9.943-3.693l-13.375 6.13v-21.312c0-4.142-3.357-7.5-7.5-7.5s-7.5 3.358-7.5 7.5v21.312l-13.375-6.13c-3.767-1.728-8.218-.072-9.943 3.693-1.726 3.766-.072 8.217 3.693 9.943l19.625 8.995v115.187c0 4.142 3.357 7.5 7.5 7.5s7.5-3.358 7.5-7.5v-26.232l25 11.852v26.38c0 4.142 3.357 7.5 7.5 7.5s7.5-3.358 7.5-7.5v-19.269l24 11.378v28.027l-16.354 11.661c-3.372 2.404-4.157 7.088-1.752 10.46 2.418 3.396 7.125 4.141 10.461 1.752l15.146-10.799 15.146 10.799c3.336 2.388 8.042 1.643 10.461-1.752 2.405-3.373 1.62-8.056-1.752-10.46l-16.356-11.661z"/></g></g></svg>