<svg id="Capa_1" enable-background="new 0 0 512 512" height="512" viewBox="0 0 512 512" width="512" xmlns="http://www.w3.org/2000/svg"><g><g><path d="m37.5 61c0-5.523 4.477-10 10-10h348c5.523 0 10 4.477 10 10v124h-368z" fill="#f4e5e0"/><path d="m405.5 61v124h-30v-124c0-5.52-4.48-10-10-10h30c5.52 0 10 4.48 10 10z" fill="#e6d6d1"/><path d="m494.5 461h-238c-5.523 0-10-4.477-10-10v-345c0-5.523 4.477-10 10-10h238c5.523 0 10 4.477 10 10v345c0 5.523-4.477 10-10 10z" fill="#fcf1f2"/><path d="m504.5 106v345c0 5.52-4.48 10-10 10h-30c5.52 0 10-4.48 10-10v-345c0-5.52-4.48-10-10-10h30c5.52 0 10 4.48 10 10z" fill="#f4e5e0"/><path d="m7.5 226h239v235h-229c-5.523 0-10-4.477-10-10z" fill="#e29a6c"/><path d="m114.756 169.474-5.426-22.791c-1.073-4.505-5.097-7.684-9.728-7.684h-82.102c-5.523 0-10 4.477-10 10v77h239v-45h-117.152c-6.946.001-12.983-4.768-14.592-11.525z" fill="#736572"/><path d="m129.35 181h-30c-6.95 0-12.99-4.77-14.59-11.53l-5.43-22.79c-1.07-4.5-5.1-7.68-9.73-7.68h30c4.63 0 8.66 3.18 9.73 7.68l5.43 22.79c1.6 6.76 7.64 11.53 14.59 11.53z" fill="#615260"/><path d="m469.5 166h-30c-2.761 0-5-2.239-5-5v-30c0-2.761-2.239-5-5-5h-20c-2.761 0-5 2.239-5 5v30c0 2.761-2.239 5-5 5h-30c-2.761 0-5 2.239-5 5v20c0 2.761 2.239 5 5 5h30c2.761 0 5 2.239 5 5v30c0 2.761 2.239 5 5 5h20c2.761 0 5-2.239 5-5v-30c0-2.761 2.239-5 5-5h30c2.761 0 5-2.239 5-5v-20c0-2.761-2.239-5-5-5z" fill="#ff8d95"/></g><g><path d="m494.5 88.5h-81.5v-27.5c0-9.649-7.851-17.5-17.5-17.5h-24c-4.142 0-7.5 3.357-7.5 7.5s3.358 7.5 7.5 7.5h24c1.378 0 2.5 1.121 2.5 2.5v27.5h-141.5c-9.649 0-17.5 7.851-17.5 17.5v67.5h-109.652c-3.488 0-6.488-2.37-7.296-5.763l-5.426-22.791c-1.885-7.917-8.886-13.446-17.024-13.446h-54.602v-70.5c0-1.379 1.122-2.5 2.5-2.5h289c4.142 0 7.5-3.357 7.5-7.5s-3.358-7.5-7.5-7.5h-289c-9.649 0-17.5 7.851-17.5 17.5v70.5h-12.5c-9.649 0-17.5 7.851-17.5 17.5v77c0 4.143 3.358 7.5 7.5 7.5h231.5v217.5c0 .851.082 1.681.2 2.5h-221.7c-1.378 0-2.5-1.121-2.5-2.5v-190c0-4.143-3.358-7.5-7.5-7.5s-7.5 3.357-7.5 7.5v190c0 9.649 7.851 17.5 17.5 17.5h477c9.649 0 17.5-7.851 17.5-17.5v-345c0-9.649-7.851-17.5-17.5-17.5zm-479.5 130v-69.5c0-1.379 1.122-2.5 2.5-2.5h82.102c1.163 0 2.163.79 2.432 1.921l5.426 22.791c2.424 10.179 11.424 17.288 21.888 17.288h109.652v30zm482 232.5c0 1.379-1.122 2.5-2.5 2.5h-238c-1.378 0-2.5-1.121-2.5-2.5v-345c0-1.379 1.122-2.5 2.5-2.5h238c1.378 0 2.5 1.121 2.5 2.5z"/><path d="m469.5 158.5h-27.5v-27.5c0-6.893-5.607-12.5-12.5-12.5h-20c-6.893 0-12.5 5.607-12.5 12.5v27.5h-27.5c-6.893 0-12.5 5.607-12.5 12.5v20c0 6.893 5.607 12.5 12.5 12.5h27.5v27.5c0 6.893 5.607 12.5 12.5 12.5h20c6.893 0 12.5-5.607 12.5-12.5v-27.5h27.5c6.893 0 12.5-5.607 12.5-12.5v-20c0-6.893-5.607-12.5-12.5-12.5zm-2.5 30h-27.5c-6.893 0-12.5 5.607-12.5 12.5v27.5h-15v-27.5c0-6.893-5.607-12.5-12.5-12.5h-27.5v-15h27.5c6.893 0 12.5-5.607 12.5-12.5v-27.5h15v27.5c0 6.893 5.607 12.5 12.5 12.5h27.5z"/><path d="m276.5 233.5h88c4.142 0 7.5-3.357 7.5-7.5s-3.358-7.5-7.5-7.5h-88c-4.142 0-7.5 3.357-7.5 7.5s3.358 7.5 7.5 7.5z"/><path d="m276.5 203.5h61c4.142 0 7.5-3.357 7.5-7.5s-3.358-7.5-7.5-7.5h-61c-4.142 0-7.5 3.357-7.5 7.5s3.358 7.5 7.5 7.5z"/><path d="m276.5 143.5h88c4.142 0 7.5-3.357 7.5-7.5s-3.358-7.5-7.5-7.5h-88c-4.142 0-7.5 3.357-7.5 7.5s3.358 7.5 7.5 7.5z"/><path d="m276.5 173.5h61c4.142 0 7.5-3.357 7.5-7.5s-3.358-7.5-7.5-7.5h-61c-4.142 0-7.5 3.357-7.5 7.5s3.358 7.5 7.5 7.5z"/><path d="m474.5 335.5h-12.208l-16.959-56.69c-.949-3.171-3.863-5.345-7.173-5.351-.004 0-.008 0-.013 0-3.304 0-6.22 2.163-7.178 5.326l-25.637 84.639-10.307-23.442c-1.197-2.724-3.891-4.481-6.866-4.481h-17.751l-16.659-37.843c-1.234-2.806-4.061-4.581-7.115-4.475-3.063.103-5.755 2.059-6.8 4.939l-22.809 62.897-6.571-20.326c-1-3.096-3.883-5.193-7.136-5.193h-26.818c-4.142 0-7.5 3.357-7.5 7.5s3.358 7.5 7.5 7.5h21.36l11.621 35.95c.985 3.05 3.8 5.136 7.004 5.192 3.22.067 6.09-1.931 7.183-4.942l23.89-65.878 11.093 25.199c1.198 2.722 3.891 4.479 6.864 4.479h17.749l16.501 37.528c1.203 2.735 3.904 4.481 6.863 4.481.15 0 .301-.005.453-.014 3.133-.188 5.818-2.308 6.728-5.312l24.294-80.206 11.419 38.172c.95 3.176 3.872 5.351 7.186 5.351h17.792c4.142 0 7.5-3.357 7.5-7.5s-3.358-7.5-7.5-7.5z"/><path d="m474.5 423.5h-37c-4.142 0-7.5 3.357-7.5 7.5s3.358 7.5 7.5 7.5h37c4.142 0 7.5-3.357 7.5-7.5s-3.358-7.5-7.5-7.5z"/><path d="m407.5 423.5h-131c-4.142 0-7.5 3.357-7.5 7.5s3.358 7.5 7.5 7.5h131c4.142 0 7.5-3.357 7.5-7.5s-3.358-7.5-7.5-7.5z"/></g></g></svg>