<svg id="Capa_1" enable-background="new 0 0 512 512" height="512" viewBox="0 0 512 512" width="512" xmlns="http://www.w3.org/2000/svg"><g><path d="m385.803 512h-288.451c-17.069 0-30.905-13.837-30.905-30.905v-368.805l189.553-22.569 160.708 22.569v368.805c0 17.068-13.837 30.905-30.905 30.905z" fill="#736572"/><path d="m445.553 112.29v368.805c0 17.07-13.835 30.905-30.905 30.905h-30.905c17.07 0 30.905-13.835 30.905-30.905v-5.151l-52.342-196.302 43.937-189.921z" fill="#615260"/><path d="m256 465.642-158.648-15.453v-337.899l158.648-22.569 158.648 22.569v337.899z" fill="#fff"/><path d="m409.497 481.095h-306.994c-2.845 0-5.151-2.306-5.151-5.151v-25.755h317.296v25.755c0 2.844-2.306 5.151-5.151 5.151z" fill="#f4e5e0"/><path d="m289.72 188.1c-3.486-2.453-7.229-4.561-11.183-6.272-7.767-3.381-16.345-5.256-25.355-5.256-13.594 0-26.196 4.263-36.538 11.527-.002-5.234-6.88-7.912-5.676-13.34 1.661-7.491 12.034-17.762 16.859-25.049 7.767-3.381 16.345-5.256 25.355-5.256s17.589 1.874 25.355 5.256c4.575 6.909 16.078 15.579 17.784 22.687 1.398 5.822-6.599 10.095-6.601 15.703z" fill="#80cf80"/><path d="m189.621 208.066v1.752l.006.006c1.367 64.764 83.706 173.29 105.95 201.458 1.469 1.86 4.393 1.436 5.284-.76l15.091-37.193c.378-.932.279-1.99-.266-2.836l-62.332-96.726-22.395-34.751s-29.875-48.807-3.042-89.345c-7.387 3.206-14.044 7.772-19.656 13.384-11.515 11.522-18.64 27.434-18.64 45.011z" fill="#9ae59c"/><path d="m316.742 208.066v1.752l-.006.006c-1.367 64.764-83.706 173.29-105.95 201.458-1.469 1.86-4.393 1.436-5.284-.76l-15.091-37.193c-.378-.932-.279-1.99.266-2.836l62.332-96.726 22.395-34.751s14.222-23.234 14.227-50.956c.003-12.457-2.866-25.821-11.185-38.389 7.387 3.206 14.044 7.772 19.656 13.384 11.516 11.522 18.64 27.434 18.64 45.011z" fill="#baf39a"/><path d="m386.833 30.905h-289.481c-17.069 0-30.905 13.837-30.905 30.905v50.479h351.292v-50.478c-.001-17.069-13.837-30.906-30.906-30.906z" fill="#cbb0f2"/><path d="m445.553 61.811v50.479h-30.905v-50.479c0-17.07-13.835-30.905-30.905-30.905h30.905c17.07-.001 30.905 13.835 30.905 30.905z" fill="#b696ef"/><path d="m332.233 81.384h-11.332c-8.534 0-15.453-6.918-15.453-15.453v-50.478c.001-8.535 6.919-15.453 15.453-15.453h11.332c8.534 0 15.453 6.918 15.453 15.453v50.479c0 8.534-6.918 15.452-15.453 15.452z" fill="#fcf1f2"/><path d="m375.501 15.453v50.479c0 8.53-6.923 15.453-15.453 15.453h-30.905c8.53 0 15.453-6.923 15.453-15.453v-50.479c0-8.53-6.923-15.453-15.453-15.453h30.905c8.53 0 15.453 6.923 15.453 15.453z" fill="#f4e5e0"/><path d="m191.099 81.384h-39.147c-8.534 0-15.453-6.918-15.453-15.453v-50.478c0-8.535 6.918-15.453 15.453-15.453h39.147c8.534 0 15.453 6.918 15.453 15.453v50.479c-.001 8.534-6.919 15.452-15.453 15.452z" fill="#fcf1f2"/></g></svg>