<svg id="Capa_1" enable-background="new 0 0 512 512" height="512" viewBox="0 0 512 512" width="512" xmlns="http://www.w3.org/2000/svg"><g><g><path d="m353 53.5h-306c-2.761 0-5 2.239-5 5v28h316v-28c0-2.761-2.239-5-5-5z" fill="#f4e5e0"/><path d="m358 58.5v28h-30v-28c0-2.76-2.24-5-5-5h30c2.76 0 5 2.24 5 5z" fill="#e6d6d1"/><path d="m358 504.5h-311c-2.761 0-5-2.239-5-5v-380h316z" fill="#ffc263"/><path d="m42 471.5h99v33h-94c-2.761 0-5-2.239-5-5z" fill="#ffe077"/><path d="m259 471.5h99v33h-99z" fill="#ffe077"/><path d="m328 119.5h30v385h-30z" fill="#ffaa5a"/><path d="m328 471.5h30v33h-30z" fill="#ffd05b"/><path d="m259 504.5h-118v-73c0-2.761 2.239-5 5-5h108c2.761 0 5 2.239 5 5z" fill="#736572"/><path d="m259 431.5v73h-59v-78h54c2.76 0 5 2.24 5 5z" fill="#615260"/><g fill="#ffe077"><path d="m308 209.5h-216c-2.761 0-5-2.239-5-5v-23c0-2.761 2.239-5 5-5h216c2.761 0 5 2.239 5 5v23c0 2.761-2.239 5-5 5z"/><path d="m308 292.5h-216c-2.761 0-5-2.239-5-5v-23c0-2.761 2.239-5 5-5h216c2.761 0 5 2.239 5 5v23c0 2.761-2.239 5-5 5z"/><path d="m308 376.5h-216c-2.761 0-5-2.239-5-5v-23c0-2.761 2.239-5 5-5h216c2.761 0 5 2.239 5 5v23c0 2.761-2.239 5-5 5z"/></g><path d="m465 504.5h-107v-295h112v290c0 2.761-2.239 5-5 5z" fill="#fcf1f2"/><path d="m470 209.5v290c0 2.76-2.24 5-5 5h-30c2.76 0 5-2.24 5-5v-290z" fill="#f4e5e0"/><path d="m480 176.5h-122v33h122c2.761 0 5-2.239 5-5v-23c0-2.761-2.239-5-5-5z" fill="#f4e5e0"/><path d="m485 181.5v23c0 2.76-2.24 5-5 5h-30c2.76 0 5-2.24 5-5v-23c0-2.76-2.24-5-5-5h30c2.76 0 5 2.24 5 5z" fill="#e6d6d1"/><path d="m368 86.5h-336c-2.761 0-5 2.239-5 5v23c0 2.761 2.239 5 5 5h336c2.761 0 5-2.239 5-5v-23c0-2.761-2.239-5-5-5z" fill="#fcf1f2"/><path d="m373 91.5v23c0 2.76-2.24 5-5 5h-30c2.76 0 5-2.24 5-5v-23c0-2.76-2.24-5-5-5h30c2.76 0 5 2.24 5 5z" fill="#f4e5e0"/><path d="m281.869 52.852c0 51.485-69.421 93.648-81.869 93.648-12.474 0-81.869-42.163-81.869-93.648 0-25.047 20.305-45.352 45.352-45.352 12.969 0 24.662 5.446 32.927 14.174 1.944 2.053 5.236 2.053 7.18 0 8.265-8.728 19.958-14.174 32.927-14.174 25.047 0 45.352 20.305 45.352 45.352z" fill="#ff8d95"/><path d="m281.87 52.85c0 51.49-69.42 93.65-81.87 93.65-2.73 0-8.17-2.01-15.01-5.7 24.47-13.16 66.88-47.71 66.88-87.95 0-12.53-5.08-23.86-13.29-32.07-4.76-4.76-10.57-8.46-17.06-10.74 4.7-1.65 9.75-2.54 15-2.54 12.52 0 23.86 5.08 32.06 13.28 8.21 8.21 13.29 19.54 13.29 32.07z" fill="#ff738a"/><path d="m435 460.5h-42c-2.761 0-5-2.239-5-5v-74c0-2.761 2.239-5 5-5h42c2.761 0 5 2.239 5 5v74c0 2.761-2.239 5-5 5z" fill="#e6d6d1"/><path d="m435 343.5h-42c-2.761 0-5-2.239-5-5v-74c0-2.761 2.239-5 5-5h42c2.761 0 5 2.239 5 5v74c0 2.761-2.239 5-5 5z" fill="#e6d6d1"/></g><g><path d="m308 169h-216c-6.893 0-12.5 5.607-12.5 12.5v23c0 6.893 5.607 12.5 12.5 12.5h216c6.893 0 12.5-5.607 12.5-12.5v-23c0-6.893-5.607-12.5-12.5-12.5zm-2.5 33h-211v-18h211z"/><path d="m308 252h-216c-6.893 0-12.5 5.607-12.5 12.5v23c0 6.893 5.607 12.5 12.5 12.5h216c6.893 0 12.5-5.607 12.5-12.5v-23c0-6.893-5.607-12.5-12.5-12.5zm-2.5 33h-211v-18h211z"/><path d="m308 336h-216c-6.893 0-12.5 5.607-12.5 12.5v23c0 6.893 5.607 12.5 12.5 12.5h216c6.893 0 12.5-5.607 12.5-12.5v-23c0-6.893-5.607-12.5-12.5-12.5zm-2.5 33h-211v-18h211z"/><path d="m480 169h-114.5v-42h2.5c6.893 0 12.5-5.607 12.5-12.5v-23c0-6.893-5.607-12.5-12.5-12.5h-2.5v-20.5c0-6.893-5.607-12.5-12.5-12.5h-64.091c-3.372-25.915-25.573-46-52.392-46-13.779 0-26.646 5.182-36.517 14.649-9.872-9.467-22.738-14.649-36.517-14.649-26.819 0-49.021 20.085-52.393 46h-64.09c-6.893 0-12.5 5.607-12.5 12.5v20.5h-2.5c-6.893 0-12.5 5.607-12.5 12.5v23c0 6.893 5.607 12.5 12.5 12.5h2.5v372.5c0 6.893 5.607 12.5 12.5 12.5h311 107c6.893 0 12.5-5.607 12.5-12.5v-282.5h2.5c6.893 0 12.5-5.607 12.5-12.5v-23c0-6.893-5.607-12.5-12.5-12.5zm-114.5-57h-102.308c4.844-5.412 9.52-11.437 13.547-18h88.76v18zm-15-33h-66.25c2.229-5.723 3.848-11.735 4.614-18h61.636zm-187.017-64c10.497 0 20.257 4.202 27.482 11.832 2.337 2.467 5.63 3.881 9.035 3.881s6.698-1.415 9.036-3.882c7.224-7.629 16.984-11.831 27.481-11.831 20.872 0 37.851 16.98 37.851 37.852 0 46.992-65.149 85.324-74.369 86.145-9.219-.813-74.368-39.116-74.368-86.145 0-20.872 16.98-37.852 37.852-37.852zm-113.983 46h61.636c.766 6.265 2.383 12.277 4.612 18h-66.248zm0 418h84v18h-84zm202-45v63h-44v-63zm15 45h84v18h-84zm-74 18h-44v-63h44zm270 0h-97v-25.5c0-4.142-3.357-7.5-7.5-7.5h-91.5v-32.5c0-6.893-5.607-12.5-12.5-12.5h-108c-6.893 0-12.5 5.607-12.5 12.5v32.5h-84v-337h37.5c4.142 0 7.5-3.358 7.5-7.5s-3.358-7.5-7.5-7.5h-52.5v-18h88.756c4.026 6.563 8.701 12.588 13.544 18h-14.8c-4.142 0-7.5 3.358-7.5 7.5s3.358 7.5 7.5 7.5h29.777c.121 0 .239-.012.359-.018 17.57 15.103 38.522 27.018 47.864 27.018 9.33 0 30.265-11.905 47.832-27h102.668v309.5c0 4.142 3.357 7.5 7.5 7.5s7.5-3.358 7.5-7.5v-219.5h97zm15-295h-112v-18h112z"/><path d="m393 468h42c6.893 0 12.5-5.607 12.5-12.5v-74c0-6.893-5.607-12.5-12.5-12.5h-42c-6.893 0-12.5 5.607-12.5 12.5v74c0 6.893 5.607 12.5 12.5 12.5zm2.5-84h37v69h-37z"/><path d="m393 351h42c6.893 0 12.5-5.607 12.5-12.5v-74c0-6.893-5.607-12.5-12.5-12.5h-42c-6.893 0-12.5 5.607-12.5 12.5v74c0 6.893 5.607 12.5 12.5 12.5zm2.5-84h37v69h-37z"/></g></g></svg>