<svg id="Capa_1" enable-background="new 0 0 512 512" height="512" viewBox="0 0 512 512" width="512" xmlns="http://www.w3.org/2000/svg"><g><g><path d="m372.392 123.984v3.208l-.011.011c-2.652 125.636-171.703 341.203-200.051 376.491-1.283 1.604-3.871.641-3.807-1.412l.46-14.008c.791-23.889-9.816-46.73-28.562-61.54-.535-.417-.813-1.048-.813-1.679 0-.406.107-.802.342-1.166l115.734-179.595 41.009-63.636s26.043-42.546 26.053-93.31c.005-22.812-5.248-47.283-20.482-70.298 13.527 5.871 25.717 14.233 35.994 24.509 21.088 21.099 34.134 50.238 34.134 82.425z" fill="#baf39a"/><path d="m372.391 123.983v3.21l-.01.01c-2.65 125.638-171.705 341.199-200.049 376.494-1.29 1.6-3.871.64-3.811-1.42l.46-14.002c.19-5.781-.28-11.492-1.39-17.042 55.928-73.771 172.585-239.825 174.785-344.03l.01-.01v-3.21c0-26.594-8.901-51.117-23.913-70.73-3.19-12.172-8.381-24.384-16.212-36.205 13.532 5.871 25.724 14.232 35.995 24.514 21.093 21.092 34.135 50.237 34.135 82.421z" fill="#9ae59c"/><path d="m139.608 123.984v3.208l.011.011c2.652 125.636 171.703 341.203 200.051 376.491 1.283 1.604 3.871.641 3.807-1.412l-.46-14.008c-.791-23.889 9.816-46.73 28.562-61.54.535-.417.813-1.048.813-1.679 0-.406-.107-.802-.342-1.166l-115.735-179.594-41.009-63.636s-54.707-89.375-5.571-163.608c-13.527 5.871-25.717 14.233-35.994 24.509-21.087 21.098-34.133 50.237-34.133 82.424z" fill="#9ae59c"/><path d="m322.908 87.422c-6.384-4.491-13.238-8.352-20.478-11.485-14.222-6.191-29.93-9.624-46.43-9.624-24.894 0-47.97 7.806-66.908 21.109-.011-22.809 5.24-47.286 20.478-70.298 14.222-6.191 29.93-9.624 46.43-9.624s32.208 3.433 46.431 9.624c15.237 23.012 20.488 47.489 20.477 70.298z" fill="#80cf80"/><path d="m318.649 53.337c-3.14-4.121-6.561-8.031-10.231-11.702-10.271-10.282-22.463-18.643-35.995-24.514-9.841-4.281-20.393-7.241-31.425-8.661 4.911-.63 9.921-.96 15.002-.96 16.502 0 32.205 3.43 46.427 9.621 7.841 11.832 13.032 24.044 16.222 36.216z" fill="#73bf73"/><path d="m376.017 284.774c0-37.002-29.996-66.998-66.998-66.998-17.975 0-34.287 7.086-46.317 18.61-3.759 3.601-9.647 3.601-13.406 0-12.03-11.524-28.342-18.61-46.317-18.61-37.002 0-66.998 29.996-66.998 66.998v2.097c0 66.284 106.822 139.297 120.017 139.297 13.195 0 120.017-73.013 120.017-139.297v-2.097z" fill="#ff8d95"/><path d="m376.017 284.776v2.09c0 33.145-26.704 67.97-55.058 94.514-28.354 26.534-58.358 44.786-64.959 44.786-2.37 0-7.761-2.35-15.002-6.601 12.932-7.571 31.785-21.183 49.957-38.185 28.354-26.544 55.058-61.369 55.058-94.514v-2.09c0-31.855-22.223-58.508-52.008-65.309 4.821-1.11 9.851-1.69 15.012-1.69 37.006 0 67 29.994 67 66.999z" fill="#ff738a"/><path d="m201.454 247.811c-19.951.807-35.467 17.744-35.467 37.711v1.348c0 17.709 14.757 42.396 40.489 67.732 18.516 18.232 37.593 31.805 48.498 38.393.631.381 1.423.381 2.053 0 10.904-6.588 29.982-20.161 48.498-38.393 25.731-25.336 40.489-50.023 40.489-67.732v-1.348c0-19.967-15.516-36.904-35.466-37.711-10.126-.41-19.806 3.266-27.087 10.242-15.399 14.75-39.52 14.75-54.918 0-7.284-6.976-16.963-10.651-27.089-10.242z" fill="#ffc7ce"/><path d="m346.013 285.527v1.34c0 17.713-14.762 42.396-40.486 67.74-18.523 18.223-37.595 31.805-48.497 38.386-.63.38-1.43.38-2.06 0-3.791-2.29-8.571-5.421-13.972-9.311 10.131-7.281 22.443-17.192 34.525-29.074 25.724-25.344 40.486-50.027 40.486-67.74v-1.34c0-15.192-8.981-28.634-22.063-34.545 5.141-2.3 10.802-3.4 16.602-3.17 19.953.808 35.465 17.741 35.465 37.714z" fill="#ffb3c0"/></g><g><path d="m310.85 240.321c-12.196-.499-23.771 3.881-32.579 12.319-12.488 11.962-32.054 11.963-44.542 0-8.808-8.438-20.381-12.821-32.578-12.32-23.924.967-42.665 20.823-42.665 45.205v1.348c0 19.995 15.174 45.947 42.727 73.077 18.079 17.802 37.621 32.061 49.883 39.469 3.026 1.827 6.783 1.826 9.809-.001 3.617-2.186 9.542-5.98 17.223-11.64 3.334-2.458 4.045-7.153 1.588-10.487-2.457-3.335-7.152-4.044-10.487-1.588-5.45 4.017-9.924 7.012-13.23 9.109-11.576-7.343-28.462-19.993-44.261-35.55-23.952-23.584-38.251-46.906-38.251-62.388v-1.348c0-16.032 12.682-29.587 28.27-30.217 8.094-.327 15.759 2.572 21.596 8.165 18.306 17.536 46.987 17.536 65.295-.001 5.837-5.591 13.509-8.485 21.596-8.164 15.587.631 28.269 14.186 28.269 30.217v1.348c0 15.482-14.299 38.804-38.252 62.388-1.56 1.536-3.175 3.088-4.802 4.613-3.022 2.833-3.175 7.579-.342 10.601 2.832 3.021 7.578 3.175 10.601.342 1.716-1.608 3.421-3.247 5.068-4.868 27.553-27.13 42.727-53.082 42.727-73.077v-1.348c0-24.38-18.74-44.236-42.663-45.204z"/><path d="m383.518 284.777c0-23.591-11.035-44.64-28.2-58.3 15.635-38.226 23.904-71.422 24.553-98.716.014-.188.021-3.774.021-3.774 0-33.132-12.902-64.288-36.33-87.728-11.025-11.025-23.831-19.761-38.063-25.974-.026-.011-.258-.114-.263-.116-15.565-6.746-32.128-10.169-49.236-10.169-17.107 0-33.67 3.422-49.234 10.168-.006.002-.237.104-.261.115-14.233 6.213-27.041 14.95-38.069 25.978-23.427 23.439-36.329 54.594-36.329 87.727 0 0 .007 3.582.021 3.768.112 4.727.454 9.682 1.015 14.737.458 4.117 4.159 7.087 8.282 6.626 4.117-.458 7.084-4.166 6.626-8.282-.528-4.751-.842-9.39-.935-13.788-.002-.081-.005-.161-.009-.242v-2.819c0-29.127 11.342-56.517 31.937-77.121 3.832-3.831 7.907-7.349 12.208-10.539-10.84 27.318-12.419 58.676-4.453 92.107 7.723 32.41 21.527 55.19 22.11 56.144.03.049.061.099.093.147l19.33 29.996c-8.037-2.908-16.59-4.442-25.352-4.442-12.029 0-23.391 2.883-33.459 7.968-6.313-15.679-11.352-30.499-14.994-44.142-1.068-4.001-5.178-6.378-9.181-5.312-4.002 1.068-6.38 5.179-5.312 9.181 4.002 14.991 9.606 31.291 16.646 48.503-17.164 13.66-28.199 34.709-28.199 58.299v2.097c0 29.287 18.357 58.008 38.729 80.87l-33.558 52.075c-2.701 4.013-1.737 9.919 2.118 12.804 16.812 13.282 26.424 33.995 25.715 55.409l-.459 14.019c-.131 4.155 2.404 7.914 6.306 9.352 3.831 1.427 8.252.247 10.844-3.008 9.169-11.414 32.917-41.515 60.98-81.238 7.346 4.109 13.307 6.515 16.843 6.515s9.496-2.406 16.843-6.515c28.076 39.742 51.824 69.841 60.971 81.226 2.6 3.264 7.016 4.448 10.853 3.02 3.902-1.438 6.437-5.196 6.306-9.362l-.459-14.011c-.709-21.412 8.903-42.125 25.678-55.378 3.893-2.913 4.86-8.792 2.163-12.821l-33.566-52.086c20.372-22.863 38.729-51.583 38.729-80.87v-2.098zm-50.564-237.913c20.596 20.607 31.938 47.996 31.938 77.123v2.817c-.004.081-.007.162-.009.244-.526 24.939-8.063 55.593-22.403 91.2-10.069-5.085-21.431-7.968-33.46-7.968-8.763 0-17.315 1.533-25.353 4.442l19.331-29.996c.032-.048.062-.098.093-.147.583-.954 14.388-23.734 22.11-56.144 3.3-13.852 4.937-27.34 4.98-40.341.052-.486.055-.974.012-1.458-.107-17.838-3.264-34.732-9.445-50.308 4.3 3.188 8.375 6.705 12.206 10.536zm-35.739-23.797c9.689 15.252 15.491 32.114 17.39 50.446-3.006-1.613-6.068-3.104-9.181-4.451-15.618-6.8-32.247-10.248-49.425-10.248-20.652 0-40.664 5.05-58.605 14.694 1.9-18.33 7.702-35.19 17.39-50.441 13.072-5.351 26.924-8.067 41.216-8.067 14.291 0 28.143 2.716 41.215 8.067zm-95.925 101.465c-2.711-11.496-4.214-22.577-4.528-33.223 17.645-11.447 38.054-17.495 59.238-17.495 15.105 0 29.719 3.028 43.452 9.007 5.464 2.365 10.756 5.214 15.786 8.478-.314 10.65-1.817 21.733-4.528 33.233-6.941 29.437-19.626 50.901-20.379 52.157l-34.331 53.275-34.33-53.272c-.774-1.294-13.444-22.747-20.38-52.16zm-24.768 361.793c.147-23.724-10.037-46.552-27.714-62.33l29.002-45.006c2.729 2.743 5.445 5.374 8.108 7.866 13.132 12.291 27.743 23.832 40.468 32.383-20.253 28.638-38.185 52.155-49.864 67.087zm186.669-62.333c-17.665 15.756-27.86 38.598-27.713 62.333-11.671-14.921-29.604-38.438-49.865-67.086 12.725-8.551 27.336-20.093 40.469-32.384 2.663-2.493 5.379-5.123 8.108-7.866zm5.327-137.118c0 60.887-98.717 128.567-112.518 131.746-13.8-3.18-112.518-70.859-112.518-131.746v-2.097c0-32.807 26.691-59.498 59.498-59.498 15.398 0 30.004 5.869 41.128 16.525 6.668 6.389 17.114 6.387 23.783 0 11.124-10.657 25.73-16.526 41.128-16.526 32.807 0 59.498 26.691 59.498 59.498v2.098z"/></g></g></svg>