<svg id="Capa_1" enable-background="new 0 0 512 512" height="512" viewBox="0 0 512 512" width="512" xmlns="http://www.w3.org/2000/svg"><g><g><path d="m405.5 281.742v109.309c0 16.569-13.431 30-30 30h-105.05c-6.693 0-12.942 3.348-16.65 8.92l-30.65 46.059c-7.914 11.893-25.386 11.893-33.301 0l-30.649-46.059c-3.708-5.572-9.957-8.92-16.65-8.92h-105.05c-16.569 0-30-13.431-30-30v-221c0-16.569 13.431-30 30-30h192.392z" fill="#fcf1f2"/><path d="m270.45 421.05c-6.69 0-12.94 3.35-16.65 8.92l-30.65 46.06c-7.4 11.12-23.18 11.84-31.65 2.15.59-.66 1.14-1.38 1.65-2.15l30.65-46.06c3.71-5.57 9.96-8.92 16.65-8.92z" fill="#f4e5e0"/><path d="m405.5 281.74v109.31c0 16.57-13.43 30-30 30h-30c16.57 0 30-13.43 30-30v-109.31l-154.5-141.69h8.89z" fill="#f4e5e0"/><path d="m435.5 233.051h38c17.121 0 31-13.879 31-31 0-17.121-13.879-31-31-31h-28z" fill="#fbbd80"/><path d="m247.5 233.051h-38c-17.121 0-31-13.879-31-31 0-17.121 13.879-31 31-31h28z" fill="#fbbd80"/><path d="m455.5 131.051v74c0 62.96-51.039 114-114 114-62.96 0-114-51.039-114-114v-74z" fill="#ffd18d"/><path d="m455.5 131.05v74c0 62.96-51.04 114-114 114-5.09 0-10.09-.33-15-.99 55.87-7.33 99-55.14 99-113.01v-74z" fill="#fbbd80"/><path d="m470.5 117.05v54h-15v34h-15c-.16 0-.32 0-.48-.01-8.06-.25-14.52-6.86-14.52-14.99v-32c0-5.52-4.48-10-10-10h-148c-5.52 0-10 4.48-10 10v32c0 8.13-6.46 14.74-14.52 14.99-.16.01-.32.01-.48.01h-15v-34h-15v-54c0-49.7 40.29-90 90-90h78c49.71 0 90 40.3 90 90z" fill="#736572"/><path d="m470.5 117.05v54h-15v34h-15c-.16 0-.32 0-.48-.01-8.06-.25-14.52-6.86-14.52-14.99v-73c0-49.7-40.29-90-90-90h45c49.71 0 90 40.3 90 90z" fill="#615260"/><path d="m148.5 233.051h-28c-2.761 0-5-2.239-5-5v-28c0-2.761-2.239-5-5-5h-20c-2.761 0-5 2.239-5 5v28c0 2.761-2.239 5-5 5h-28c-2.761 0-5 2.239-5 5v20c0 2.761 2.239 5 5 5h28c2.761 0 5 2.239 5 5v28c0 2.761 2.239 5 5 5h20c2.761 0 5-2.239 5-5v-28c0-2.761 2.239-5 5-5h28c2.761 0 5-2.239 5-5v-20c0-2.761-2.239-5-5-5z" fill="#ff8d95"/></g><g><path d="m478 163.823v-46.772c0-53.762-43.738-97.5-97.5-97.5h-78c-53.762 0-97.5 43.738-97.5 97.5v15.5h-167.5c-20.678 0-37.5 16.822-37.5 37.5v141c0 4.142 3.357 7.5 7.5 7.5s7.5-3.358 7.5-7.5v-141c0-12.407 10.094-22.5 22.5-22.5h167.5v16.272c-19.115 2.237-34 18.522-34 38.228 0 21.229 17.271 38.5 38.5 38.5h15.789c15.222 49.732 61.561 86 116.211 86 20.385 0 39.611-5.051 56.5-13.96v78.46c0 12.407-10.094 22.5-22.5 22.5h-105.05c-9.225 0-17.783 4.585-22.895 12.265l-30.649 46.059c-4.562 7.369-16.251 7.368-20.812 0l-30.649-46.059c-5.111-7.68-13.67-12.265-22.895-12.265h-105.05c-12.406 0-22.5-10.093-22.5-22.5v-45c0-4.142-3.357-7.5-7.5-7.5s-7.5 3.358-7.5 7.5v45c0 20.678 16.822 37.5 37.5 37.5h105.05c4.193 0 8.083 2.084 10.406 5.575l30.649 46.059c5.11 7.68 13.669 12.265 22.895 12.265s17.784-4.585 22.895-12.265l30.649-46.058c2.323-3.491 6.213-5.575 10.406-5.575h105.05c20.678 0 37.5-16.822 37.5-37.5v-87.846c21.001-15.34 36.929-37.229 44.711-62.654h15.789c21.229 0 38.5-17.271 38.5-38.5 0-19.707-14.885-35.993-34-38.229zm-268.5 61.728c-12.958 0-23.5-10.542-23.5-23.5s10.542-23.5 23.5-23.5h10.5v26.5c0 6.984.593 13.835 1.729 20.5zm132 86c-56.203 0-102.37-43.763-106.232-99h7.232c12.406 0 22.5-10.093 22.5-22.5v-32c0-1.378 1.121-2.5 2.5-2.5h88c4.143 0 7.5-3.358 7.5-7.5s-3.357-7.5-7.5-7.5h-88c-9.649 0-17.5 7.851-17.5 17.5v32c0 4.136-3.364 7.5-7.5 7.5h-7.5v-26.5c0-4.142-3.357-7.5-7.5-7.5h-7.5v-46.5c0-45.491 37.01-82.5 82.5-82.5h78c45.49 0 82.5 37.009 82.5 82.5v46.5h-7.5c-4.143 0-7.5 3.358-7.5 7.5v26.5h-7.5c-4.136 0-7.5-3.364-7.5-7.5v-32c0-9.649-7.851-17.5-17.5-17.5h-25c-4.143 0-7.5 3.358-7.5 7.5s3.357 7.5 7.5 7.5h25c1.379 0 2.5 1.122 2.5 2.5v32c0 12.407 10.094 22.5 22.5 22.5h7.232c-3.862 55.237-50.029 99-106.232 99zm132-86h-12.229c1.137-6.665 1.729-13.516 1.729-20.5v-26.5h10.5c12.958 0 23.5 10.542 23.5 23.5s-10.542 23.5-23.5 23.5z"/><path d="m390.5 185.551c-4.143 0-7.5 3.358-7.5 7.5v12c0 4.142 3.357 7.5 7.5 7.5s7.5-3.358 7.5-7.5v-12c0-4.142-3.357-7.5-7.5-7.5z"/><path d="m290.5 185.551c-4.143 0-7.5 3.358-7.5 7.5v12c0 4.142 3.357 7.5 7.5 7.5s7.5-3.358 7.5-7.5v-12c0-4.142-3.357-7.5-7.5-7.5z"/><path d="m379.104 233.135c-3.514-2.192-8.141-1.125-10.334 2.39-6.136 9.826-16.703 15.691-28.27 15.691s-22.134-5.866-28.27-15.691c-2.192-3.514-6.817-4.583-10.334-2.39-3.513 2.194-4.583 6.82-2.389 10.334 8.893 14.244 24.218 22.747 40.992 22.747s32.1-8.503 40.992-22.747c2.196-3.513 1.125-8.14-2.387-10.334z"/><path d="m110.5 187.551h-20c-6.893 0-12.5 5.607-12.5 12.5v25.5h-25.5c-6.893 0-12.5 5.607-12.5 12.5v20c0 6.893 5.607 12.5 12.5 12.5h25.5v25.5c0 6.893 5.607 12.5 12.5 12.5h20c6.893 0 12.5-5.607 12.5-12.5v-25.5h25.5c6.893 0 12.5-5.607 12.5-12.5v-20c0-6.893-5.607-12.5-12.5-12.5h-25.5v-25.5c0-6.893-5.607-12.5-12.5-12.5zm35.5 53v15h-25.5c-6.893 0-12.5 5.607-12.5 12.5v25.5h-15v-25.5c0-6.893-5.607-12.5-12.5-12.5h-25.5v-15h25.5c6.893 0 12.5-5.607 12.5-12.5v-25.5h15v25.5c0 6.893 5.607 12.5 12.5 12.5z"/><path d="m183.5 383.551h177c4.143 0 7.5-3.358 7.5-7.5s-3.357-7.5-7.5-7.5h-177c-4.143 0-7.5 3.358-7.5 7.5s3.357 7.5 7.5 7.5z"/><path d="m183.5 293.551h30c4.143 0 7.5-3.358 7.5-7.5s-3.357-7.5-7.5-7.5h-30c-4.143 0-7.5 3.358-7.5 7.5s3.357 7.5 7.5 7.5z"/><path d="m183.5 323.551h54c4.143 0 7.5-3.358 7.5-7.5s-3.357-7.5-7.5-7.5h-54c-4.143 0-7.5 3.358-7.5 7.5s3.357 7.5 7.5 7.5z"/><path d="m183.5 353.551h106c4.143 0 7.5-3.358 7.5-7.5s-3.357-7.5-7.5-7.5h-106c-4.143 0-7.5 3.358-7.5 7.5s3.357 7.5 7.5 7.5z"/><path d="m47.5 383.551h106c4.143 0 7.5-3.358 7.5-7.5s-3.357-7.5-7.5-7.5h-106c-4.143 0-7.5 3.358-7.5 7.5s3.357 7.5 7.5 7.5z"/><path d="m47.5 353.551h106c4.143 0 7.5-3.358 7.5-7.5s-3.357-7.5-7.5-7.5h-106c-4.143 0-7.5 3.358-7.5 7.5s3.357 7.5 7.5 7.5z"/></g></g></svg>