<svg xmlns="http://www.w3.org/2000/svg" width="48" height="48" viewBox="0 0 48 48" version="1.1">
	<path d="M 17.923 2.923 C 15.415 5.431, 15.003 6.602, 15.024 11.173 C 15.039 14.502, 15.973 18.750, 17.516 22.500 L 19.984 28.500 16.242 33.813 C 14.184 36.734, 12.086 39.719, 11.580 40.444 C 10.622 41.817, 12.584 48, 13.976 48 C 14.380 48, 16.653 45.188, 19.028 41.750 C 21.402 38.313, 23.517 35.288, 23.727 35.029 C 23.937 34.770, 24.498 35.220, 24.974 36.029 C 27.053 39.567, 33.407 48, 33.993 48 C 34.347 48, 35.316 46.567, 36.146 44.815 C 37.639 41.662, 37.604 41.562, 32.793 35.125 C 29.601 30.855, 28.167 28.086, 28.618 27.061 C 31.304 20.960, 32.939 14.797, 32.967 10.673 C 32.995 6.648, 32.515 5.361, 30.077 2.923 C 28.082 0.928, 26.152 -0, 24 -0 C 21.848 -0, 19.918 0.928, 17.923 2.923 M 20.750 6.689 C 18.356 7.315, 18.564 9.537, 21.622 16 L 24.225 21.500 26.183 17 C 29.427 9.544, 29.566 7.384, 26.847 6.656 C 24.317 5.978, 23.452 5.983, 20.750 6.689" stroke="none" fill="black" fill-rule="evenodd"/>
</svg>